# xmcd CD database file
#
# Track frame offsets:
#	183
#	13208
#	29488
#	49318
#	64448
#	77443
#	89975
#	103153
#	117820
#	133768
#	148550
#	161190
#	175595
#	194425
#	208705
#	224638
#
# Disc length: 3197 seconds
#
# Revision: 4
# Processed by: cddbd v1.5.1PL0 Copyright (c) Steve Scherf et al.
# Submitted via: CDex 1.51
#
DISCID=fb0c7b10
DTITLE=Various Artist - Thomas Jeier Pr‰Sentiert Den Country Club Cd
DYEAR=1992
DGENRE=Country
TTITLE0=Alan Jackson - Don¥T Rock The Jukebox
TTITLE1=The Bellamy Brothers - Crossfire
TTITLE2=The Judds - Young Love
TTITLE3=Kathy Mattea - Eighteen Wheels And A Dozen Roses
TTITLE4=George Strait - Amarillo By Morning
TTITLE5=Clint Black - Killin¥ Time
TTITLE6=Sammy Kershaw - Cadillac Style
TTITLE7=Steve Wariner - Life¥S Highway
TTITLE8=Willie Nelson - Always On My Mind
TTITLE9=Tom Astor - Renovier Deine Seele
TTITLE10=Don Williams - Some Broken Hearts Never Mend
TTITLE11=The Bellamy Brothers - Miami Moon
TTITLE12=Gunter Gabriel - Intercity Linie Nr. 4
TTITLE13=Frank Baum and Country Green - Wieder Mal Vorbei
TTITLE14=Randy Travis - Forever And Ever, Amen
TTITLE15=Merle Haggard - Twinkle, Twinkle Lucky Star
EXTD=YEAR: 1992
EXTT0=
EXTT1=
EXTT2=
EXTT3=
EXTT4=
EXTT5=
EXTT6=
EXTT7=
EXTT8=
EXTT9=
EXTT10=
EXTT11=
EXTT12=
EXTT13=
EXTT14=
EXTT15=
PLAYORDER=
